HIERARCHY
ROOT CG
{
	OFFSET 0.000000 0.000000 27.772259
	CHANNELS 6 Xposition Yposition Zposition Xrotation Yrotation Zrotation
	JOINT Pelvis
	{
		OFFSET 0.000000 0.000000 0.000000
		CHANNELS 3 Xrotation Yrotation Zrotation
		JOINT Spine
		{
			OFFSET -0.000017 -10.490843 -0.495483
			CHANNELS 3 Xrotation Yrotation Zrotation
			JOINT Spine1
			{
				OFFSET -0.000010 -22.678980 0.018061
				CHANNELS 3 Xrotation Yrotation Zrotation
				JOINT Spine2
				{
					OFFSET -0.000010 -22.678967 0.018061
					CHANNELS 3 Xrotation Yrotation Zrotation
					JOINT Spine3
					{
						OFFSET -0.000010 -22.678982 0.018059
						CHANNELS 3 Xrotation Yrotation Zrotation
						JOINT Neck
						{
							OFFSET -0.000012 -22.678986 -1.289251
							CHANNELS 3 Xrotation Yrotation Zrotation
							JOINT Neck1
							{
								OFFSET -0.000007 -16.255905 0.012947
								CHANNELS 3 Xrotation Yrotation Zrotation
								JOINT Head
								{
									OFFSET -0.000005 -10.784607 -0.287502
									CHANNELS 3 Xrotation Yrotation Zrotation
									JOINT Jaw01
									{
										OFFSET 0.000031 7.782959 5.073944
										CHANNELS 3 Xrotation Yrotation Zrotation
										JOINT Jaw02
										{
											OFFSET 0.000004 -34.927139 -18.883980
											CHANNELS 3 Xrotation Yrotation Zrotation
											End Site
											{
												OFFSET -0.000170 8.372803 -38.812450
											}
										}
									}
									JOINT Nose
									{
										OFFSET -0.000002 -25.700912 7.222265
										CHANNELS 3 Xrotation Yrotation Zrotation
										End Site
										{
											OFFSET -0.000090 0.641281 -21.715439
										}
									}
									JOINT L_EyeSocket
									{
										OFFSET 7.352326 -19.832718 14.164183
										CHANNELS 3 Xrotation Yrotation Zrotation
										JOINT L_Eye
										{
											OFFSET -0.000868 -0.001053 0.016003
											CHANNELS 3 Xrotation Yrotation Zrotation
											End Site
											{
												OFFSET -0.001505 -0.001846 0.027969
											}
										}
										JOINT L_Eyelid_Top
										{
											OFFSET -0.001004 -0.002625 0.032516
											CHANNELS 3 Xrotation Yrotation Zrotation
											End Site
											{
												OFFSET -0.013218 0.005753 0.024086
											}
										}
										JOINT L_Eyelid_Bottom
										{
											OFFSET -0.001194 -0.002777 0.035381
											CHANNELS 3 Xrotation Yrotation Zrotation
											End Site
											{
												OFFSET -0.010032 0.008636 -0.024754
											}
										}
									}
									JOINT R_EyeSocket
									{
										OFFSET -7.352252 -19.832748 14.164206
										CHANNELS 3 Xrotation Yrotation Zrotation
										JOINT R_Eye
										{
											OFFSET 0.000875 -0.001068 0.015991
											CHANNELS 3 Xrotation Yrotation Zrotation
											End Site
											{
												OFFSET 0.001505 -0.001846 0.027962
											}
										}
										JOINT R_Eyelid_Top
										{
											OFFSET 0.001021 -0.002625 0.032516
											CHANNELS 3 Xrotation Yrotation Zrotation
											End Site
											{
												OFFSET 0.013214 0.005753 0.024078
											}
										}
										JOINT R_Eyelid_Bottom
										{
											OFFSET 0.001170 -0.002762 0.035366
											CHANNELS 3 Xrotation Yrotation Zrotation
											End Site
											{
												OFFSET 0.010029 0.008636 -0.024746
											}
										}
									}
								}
								JOINT Neck_Fat
								{
									OFFSET 0.000044 -9.595100 -17.491512
									CHANNELS 3 Xrotation Yrotation Zrotation
									End Site
									{
										OFFSET -0.000036 15.369423 -0.000007
									}
								}
							}
						}
						JOINT L_Clavicle
						{
							OFFSET 4.567107 -11.666092 -3.750029
							CHANNELS 3 Xrotation Yrotation Zrotation
							JOINT L_UpperArm
							{
								OFFSET 20.725666 -0.000053 -0.000032
								CHANNELS 3 Xrotation Yrotation Zrotation
								JOINT L_Forearm
								{
									OFFSET 5.265112 -0.585754 -20.155697
									CHANNELS 3 Xrotation Yrotation Zrotation
									JOINT L_Hand
									{
										OFFSET 2.653017 -10.877708 -16.383667
										CHANNELS 3 Xrotation Yrotation Zrotation
										JOINT L_Finger0
										{
											OFFSET -4.206146 -4.328911 -5.034346
											CHANNELS 3 Xrotation Yrotation Zrotation
											JOINT L_Finger01
											{
												OFFSET 0.084272 -1.788536 -4.181065
												CHANNELS 3 Xrotation Yrotation Zrotation
												End Site
												{
													OFFSET 3.261885 3.094673 -0.685818
												}
											}
										}
										JOINT L_Finger1
										{
											OFFSET -1.039112 -6.775742 -3.499998
											CHANNELS 3 Xrotation Yrotation Zrotation
											JOINT L_Finger11
											{
												OFFSET 1.320335 -3.040672 -6.425793
												CHANNELS 3 Xrotation Yrotation Zrotation
												End Site
												{
													OFFSET -1.244579 6.832077 -2.013330
												}
											}
										}
										JOINT L_Finger2
										{
											OFFSET 2.531296 -5.656487 -3.286415
											CHANNELS 3 Xrotation Yrotation Zrotation
											JOINT L_Finger21
											{
												OFFSET 1.991665 -2.402016 -5.957748
												CHANNELS 3 Xrotation Yrotation Zrotation
												End Site
												{
													OFFSET -2.793068 5.800873 -1.944178
												}
											}
										}
										JOINT L_Finger3
										{
											OFFSET 5.474075 -3.302338 -2.655975
											CHANNELS 3 Xrotation Yrotation Zrotation
											JOINT L_Finger31
											{
												OFFSET 2.026943 -1.267532 -5.961166
												CHANNELS 3 Xrotation Yrotation Zrotation
												End Site
												{
													OFFSET -4.375172 4.343658 -1.800320
												}
											}
										}
										JOINT L_Finger4
										{
											OFFSET 4.825745 1.085899 -2.321970
											CHANNELS 3 Xrotation Yrotation Zrotation
											JOINT L_Finger41
											{
												OFFSET 3.358261 -1.829651 -3.744434
												CHANNELS 3 Xrotation Yrotation Zrotation
												End Site
												{
													OFFSET -3.843296 2.955200 -2.267633
												}
											}
										}
									}
								}
							}
						}
						JOINT R_Clavicle
						{
							OFFSET -4.567111 -11.666092 -3.750036
							CHANNELS 3 Xrotation Yrotation Zrotation
							JOINT R_UpperArm
							{
								OFFSET -20.725670 -0.000031 0.000038
								CHANNELS 3 Xrotation Yrotation Zrotation
								JOINT R_Forearm
								{
									OFFSET -5.265285 -0.585762 -20.155655
									CHANNELS 3 Xrotation Yrotation Zrotation
									JOINT R_Hand
									{
										OFFSET -2.653147 -10.877739 -16.383663
										CHANNELS 3 Xrotation Yrotation Zrotation
										JOINT R_Finger0
										{
											OFFSET 4.206116 -4.328888 -5.034388
											CHANNELS 3 Xrotation Yrotation Zrotation
											JOINT R_Finger01
											{
												OFFSET -0.084324 -1.788544 -4.181051
												CHANNELS 3 Xrotation Yrotation Zrotation
												End Site
												{
													OFFSET -3.261890 3.094666 -0.685791
												}
											}
										}
										JOINT R_Finger1
										{
											OFFSET 1.039101 -6.775711 -3.499994
											CHANNELS 3 Xrotation Yrotation Zrotation
											JOINT R_Finger11
											{
												OFFSET -1.320374 -3.040672 -6.425779
												CHANNELS 3 Xrotation Yrotation Zrotation
												End Site
												{
													OFFSET 1.244556 6.832077 -2.013342
												}
											}
										}
										JOINT R_Finger2
										{
											OFFSET -2.531307 -5.656464 -3.286409
											CHANNELS 3 Xrotation Yrotation Zrotation
											JOINT R_Finger21
											{
												OFFSET -1.991707 -2.402016 -5.957708
												CHANNELS 3 Xrotation Yrotation Zrotation
												End Site
												{
													OFFSET 2.793037 5.800858 -1.944197
												}
											}
										}
										JOINT R_Finger3
										{
											OFFSET -5.474091 -3.302330 -2.655947
											CHANNELS 3 Xrotation Yrotation Zrotation
											JOINT R_Finger31
											{
												OFFSET -2.026993 -1.267532 -5.961157
												CHANNELS 3 Xrotation Yrotation Zrotation
												End Site
												{
													OFFSET 4.375156 4.343674 -1.800358
												}
											}
										}
										JOINT R_Finger4
										{
											OFFSET -4.825756 1.085922 -2.321926
											CHANNELS 3 Xrotation Yrotation Zrotation
											JOINT R_Finger41
											{
												OFFSET -3.358307 -1.829651 -3.744390
												CHANNELS 3 Xrotation Yrotation Zrotation
												End Site
												{
													OFFSET 3.843273 2.955208 -2.267666
												}
											}
										}
									}
								}
							}
						}
					}
				}
			}
		}
		JOINT Tail01
		{
			OFFSET -0.000010 10.922326 -0.017508
			CHANNELS 3 Xrotation Yrotation Zrotation
			JOINT Tail02
			{
				OFFSET -0.000022 21.986111 0.000013
				CHANNELS 3 Xrotation Yrotation Zrotation
				JOINT Tail03
				{
					OFFSET -0.000022 21.986118 0.000002
					CHANNELS 3 Xrotation Yrotation Zrotation
					JOINT Tail04
					{
						OFFSET -0.000022 21.986122 0.000004
						CHANNELS 3 Xrotation Yrotation Zrotation
						JOINT Tail05
						{
							OFFSET -0.000022 21.986099 0.000010
							CHANNELS 3 Xrotation Yrotation Zrotation
							JOINT Tail06
							{
								OFFSET -0.000022 21.986099 0.000006
								CHANNELS 3 Xrotation Yrotation Zrotation
								JOINT Tail07
								{
									OFFSET -0.000022 21.986099 0.000000
									CHANNELS 3 Xrotation Yrotation Zrotation
									JOINT Tail08
									{
										OFFSET -0.000022 21.984848 0.000050
										CHANNELS 3 Xrotation Yrotation Zrotation
										JOINT Tail09
										{
											OFFSET -0.000025 21.926025 -1.606211
											CHANNELS 3 Xrotation Yrotation Zrotation
											JOINT Tail10
											{
												OFFSET -0.000027 21.750092 -3.203882
												CHANNELS 3 Xrotation Yrotation Zrotation
												End Site
												{
													OFFSET -0.000036 4.767395 21.461668
												}
											}
										}
									}
								}
							}
						}
					}
				}
			}
		}
		JOINT L_Thigh
		{
			OFFSET 24.788780 0.000021 -0.000034
			CHANNELS 3 Xrotation Yrotation Zrotation
			JOINT L_Calf
			{
				OFFSET 4.720837 4.161326 -21.049969
				CHANNELS 3 Xrotation Yrotation Zrotation
				JOINT L_Foot
				{
					OFFSET 2.154160 21.114433 -11.949743
					CHANNELS 3 Xrotation Yrotation Zrotation
					JOINT L_Toe0
					{
						OFFSET 4.557564 9.251841 -8.735286
						CHANNELS 3 Xrotation Yrotation Zrotation
						End Site
						{
							OFFSET 4.555542 -12.646044 1.018752
						}
					}
					JOINT L_Toe1
					{
						OFFSET 2.346291 5.845602 -11.687160
						CHANNELS 3 Xrotation Yrotation Zrotation
						End Site
						{
							OFFSET 5.347954 -12.298279 1.365644
						}
					}
					JOINT L_Toe2
					{
						OFFSET -0.356020 3.902458 -12.541145
						CHANNELS 3 Xrotation Yrotation Zrotation
						End Site
						{
							OFFSET 3.916235 -12.806129 1.542549
						}
					}
					JOINT L_Toe3
					{
						OFFSET -4.603447 3.183935 -12.435249
						CHANNELS 3 Xrotation Yrotation Zrotation
						End Site
						{
							OFFSET 3.810858 -12.587427 2.957583
						}
					}
					JOINT L_Toe4
					{
						OFFSET -7.144358 6.231495 -10.072764
						CHANNELS 3 Xrotation Yrotation Zrotation
						End Site
						{
							OFFSET 3.810858 -12.587425 2.957585
						}
					}
				}
			}
		}
		JOINT R_Thigh
		{
			OFFSET -24.788780 -0.000024 0.000034
			CHANNELS 3 Xrotation Yrotation Zrotation
			JOINT R_Calf
			{
				OFFSET -4.720922 4.161324 -21.049952
				CHANNELS 3 Xrotation Yrotation Zrotation
				JOINT R_Foot
				{
					OFFSET -2.154238 21.114414 -11.949730
					CHANNELS 3 Xrotation Yrotation Zrotation
					JOINT R_Toe0
					{
						OFFSET -4.557598 9.251823 -8.735270
						CHANNELS 3 Xrotation Yrotation Zrotation
						End Site
						{
							OFFSET -4.555508 -12.646051 1.018756
						}
					}
					JOINT R_Toe1
					{
						OFFSET -2.346325 5.845589 -11.687157
						CHANNELS 3 Xrotation Yrotation Zrotation
						End Site
						{
							OFFSET -5.347919 -12.298286 1.365654
						}
					}
					JOINT R_Toe2
					{
						OFFSET 0.355980 3.902462 -12.541145
						CHANNELS 3 Xrotation Yrotation Zrotation
						End Site
						{
							OFFSET -3.916199 -12.806131 1.542559
						}
					}
					JOINT R_Toe3
					{
						OFFSET 4.603411 3.183941 -12.435266
						CHANNELS 3 Xrotation Yrotation Zrotation
						End Site
						{
							OFFSET -3.810825 -12.587429 2.957591
						}
					}
					JOINT R_Toe4
					{
						OFFSET 7.144323 6.231503 -10.072779
						CHANNELS 3 Xrotation Yrotation Zrotation
						End Site
						{
							OFFSET -3.810825 -12.587433 2.957584
						}
					}
				}
			}
		}
	}
}
MOTION
Frames: 5
Frame Time: 0.033333
12.000000 -0.000001 27.772259 0.000000 0.000000 -0.000109 -0.000001 -0.000000 -13.456105 -0.001148 0.004913 13.456185 -0.791063 3.077542 14.399492 -1.634525 2.963907 14.896807 -2.909259 3.209082 16.889337 -0.000050 -0.000052 17.833023 -0.000034 -0.000100 17.344015 -5.800270 -8.159769 1.535023 -17.253317 -0.000021 0.000025 0.000014 0.000000 -0.000000 0.000020 -0.000000 -0.000000 -0.000005 0.000008 -0.000018 0.000124 -0.000077 0.000010 0.000008 0.000004 -0.000002 0.000008 -0.000003 0.000005 0.000000 0.000000 -0.000003 0.000121 0.000076 -0.000017 0.000000 -0.000001 -0.000000 -0.000011 -0.000000 -0.000008 0.000001 -0.000001 -0.000001 0.001537 18.440271 11.352620 111.664789 -41.456509 51.226740 -6.365980 1.090067 -1.637014 5.371160 -10.091060 -6.229514 26.724927 -11.483881 4.974058 11.527505 -7.981965 2.112985 17.246296 3.896005 1.232308 12.357019 2.755616 1.002648 15.615353 8.341597 0.801727 11.175593 5.957513 0.806238 12.226934 12.903357 0.032032 8.717965 9.246350 0.306778 10.015288 14.617160 0.636588 7.147577 10.462422 0.717852 0.000504 -13.870407 -10.681626 54.243856 24.491074 -10.423486 -20.478215 -4.129763 4.798207 -7.219379 -9.244035 27.409966 2.328314 -12.759709 5.730950 -4.410563 -8.246336 5.000981 -10.799425 2.175210 1.336804 -10.799418 2.175219 1.336798 -9.830856 4.971996 1.636041 -9.830847 4.971995 1.636045 -7.702357 7.928269 1.415399 -7.702380 7.928268 1.415390 -6.406143 8.969672 1.696796 -6.406139 8.969670 1.696786 1.030629 4.887320 -12.268882 0.660732 -0.543299 -8.801110 1.083141 -0.504138 -15.532590 0.912054 -0.493093 -14.431196 0.549969 -0.514777 -10.072134 0.283780 -0.534246 -6.444920 0.118857 -0.546382 -3.827988 0.070012 -0.720636 -2.173964 -0.177981 -0.276266 2.019567 -0.490442 -0.048339 4.996492 39.350168 -6.218446 -12.647212 -2.981555 -0.065732 -0.686955 40.443124 -21.736794 4.698533 0.000005 -0.000019 -0.000005 -0.000001 -0.000001 -0.000009 -0.000013 -0.000006 0.000008 -0.000002 -0.000002 0.000002 -0.000001 -0.000005 -0.000003 20.111221 -1.515918 -8.357635 13.302957 -0.723958 -2.990256 40.038518 -20.153826 -8.227496 14.852680 -6.555509 -4.805022 14.878959 -7.495053 -3.294812 16.253470 -5.330637 -0.860243 16.540725 -4.471510 1.840392 16.255746 -3.122889 5.011509 
10.134823 -0.000001 27.772259 0.000000 0.000000 -0.000109 -0.000001 -0.000000 -12.439495 -0.001236 0.004890 14.489893 -0.763042 2.930573 14.609109 -1.580033 2.823831 14.835690 -2.690655 3.074289 15.914877 -0.000051 -0.000053 17.223729 -0.000038 -0.000103 16.384333 -5.230838 -7.986030 1.646471 -17.210974 -0.000020 0.000024 0.000011 0.000000 -0.000001 0.000021 0.000000 -0.000001 -0.000005 0.000007 -0.000010 0.000123 -0.000077 0.000006 0.000007 0.000000 -0.000003 0.000006 -0.000003 0.000008 0.000001 0.000000 -0.000005 0.000121 0.000076 -0.000017 0.000002 -0.000000 -0.000003 -0.000013 -0.000002 -0.000007 -0.000000 -0.000001 -0.000001 0.001436 19.060387 13.025362 112.625783 -43.054179 50.934572 -5.479027 0.927061 -1.415864 6.511562 -8.315009 -6.697824 24.751759 -9.891549 3.828677 10.732033 -7.268240 1.680217 15.521617 3.492657 1.164336 11.277533 2.506733 0.938898 14.048868 7.498848 0.818880 10.197961 5.431539 0.782226 10.984400 11.614522 0.149168 7.950547 8.437139 0.336503 8.997911 13.152581 0.689765 6.520412 9.544879 0.707218 0.000889 -13.987748 -10.930444 56.639057 24.277725 -13.872117 -17.243263 -3.363081 4.138187 -3.911034 -9.320933 26.784679 3.835943 -11.042282 5.339957 -3.500140 -7.213809 4.701292 -9.396428 1.909043 1.141908 -9.396728 1.908148 1.140712 -8.548055 4.342132 1.369591 -8.546032 4.344669 1.375633 -6.688947 6.911573 1.165152 -6.687098 6.912789 1.170479 -5.554394 7.819029 1.418240 -5.554404 7.819033 1.418231 1.042803 4.883042 -12.416088 0.650422 -0.931661 -9.450324 0.883994 -0.867977 -15.802051 0.634838 -0.842336 -15.014380 0.290210 -0.868423 -11.208735 0.054305 -0.896557 -7.962747 -0.084570 -0.917803 -5.510443 0.014902 -1.211555 -3.643395 0.217790 -0.891021 0.557269 0.495735 -0.812262 3.828042 37.724658 -6.350478 -10.989218 -1.024985 -0.026634 -0.235782 41.201415 -19.587922 3.106105 0.000002 -0.000020 0.000000 0.000002 -0.000001 -0.000009 0.000015 -0.000124 0.000021 0.000001 -0.000002 0.000004 0.000015 -0.000010 0.000000 21.268912 -1.715752 -7.130046 12.119680 -0.631520 -2.731604 39.619663 -19.066388 -8.707733 14.992726 -6.617604 -4.842231 15.021200 -7.567107 -3.309435 16.407620 -5.381270 -0.858598 16.697951 -4.512218 1.860510 16.411051 -3.144224 5.062583 
8.725190 -0.000001 27.772259 0.000000 0.000000 -0.000109 -0.000000 -0.000000 -10.455566 -0.001244 0.004889 14.581064 -0.736548 2.783725 14.858911 -1.526900 2.683951 14.797362 -2.474079 2.936565 14.935501 -0.000052 -0.000054 16.630298 -0.000041 -0.000103 15.402345 -4.680429 -7.780608 1.762087 -17.165966 -0.000021 0.000024 0.000009 0.000000 0.000000 0.000020 -0.000000 0.000000 -0.000005 0.000008 -0.000017 0.000123 -0.000077 0.000010 0.000006 0.000002 0.000001 0.000002 -0.000004 0.000007 0.000000 0.000000 -0.000003 0.000122 0.000076 -0.000015 0.000002 -0.000001 -0.000000 -0.000010 0.000000 -0.000009 -0.000000 -0.000000 -0.000001 0.001253 19.795580 14.939821 114.067649 -44.860143 51.114414 -4.502165 0.751638 -1.169590 7.665718 -6.443632 -7.291478 22.643621 -8.103044 2.649181 9.813273 -6.433696 1.187271 13.573199 3.038898 1.071705 10.021492 2.218743 0.858855 12.279419 6.550843 0.818210 9.061274 4.820219 0.742975 9.586018 10.163645 0.254222 7.060128 7.495255 0.357258 7.858527 11.497200 0.717717 5.792505 8.477568 0.682097 0.000844 -14.084496 -11.199190 58.929943 23.936924 -17.466629 -13.780054 -2.586506 3.386903 -0.227222 -9.519678 26.224544 5.509352 -9.157836 4.851450 -2.468452 -6.058093 4.341839 -7.816439 1.603300 0.928754 -7.816928 1.601448 0.927618 -7.104047 3.628769 1.095527 -7.102386 3.630773 1.099305 -5.551776 5.761151 0.916723 -5.550279 5.763182 0.916723 -4.607251 6.515144 1.127127 -4.603632 6.517279 1.125747 1.056910 4.880335 -12.581108 0.654556 -1.220767 -10.145669 0.745445 -1.138403 -16.088538 0.442929 -1.099402 -15.574433 0.109882 -1.124817 -12.295626 -0.110415 -1.157108 -9.425679 -0.239851 -1.184436 -7.160822 -0.041542 -1.601463 -5.174917 0.507349 -1.426048 -1.032709 1.240941 -1.546312 2.481128 35.946299 -7.096184 -10.024631 0.993562 0.029833 0.228099 42.352784 -17.495924 1.505159 -0.000000 -0.000001 0.000003 0.000002 0.000001 -0.000005 0.000114 -0.000400 0.000053 0.000001 -0.000000 0.000003 -0.000001 -0.000003 0.000000 22.491121 -2.255253 -6.626062 10.816451 -0.535953 -2.444701 39.292432 -17.874718 -9.283992 15.152788 -6.701943 -4.885569 15.179580 -7.662799 -3.341796 16.586664 -5.442247 -0.861877 16.882179 -4.556003 1.891262 16.594612 -3.162264 5.121072 
7.235017 -0.000001 27.772259 0.000000 0.000000 -0.000109 -0.000000 -0.000000 -8.338861 -0.001234 0.004890 14.534895 -0.709591 2.636174 15.114078 -1.473050 2.543327 14.762168 -2.260972 2.794946 13.959461 -0.000054 -0.000054 16.040237 -0.000046 -0.000103 14.417390 -4.151045 -7.542675 1.870278 -17.117863 -0.000021 0.000024 0.000008 0.000000 0.000001 0.000020 -0.000000 -0.000000 -0.000005 0.000007 -0.000015 0.000124 -0.000077 0.000005 0.000008 0.000004 -0.000002 0.000003 -0.000003 0.000005 0.000001 0.000000 -0.000003 0.000122 0.000077 -0.000017 0.000001 -0.000001 -0.000000 -0.000011 -0.000002 -0.000006 0.000001 -0.000000 -0.000000 0.003028 20.570624 16.945286 115.791022 -46.685378 51.596431 -3.480288 0.572780 -0.909014 8.838592 -4.533069 -7.966913 20.503733 -6.220968 1.503378 8.857949 -5.550908 0.683677 11.535342 2.567553 0.957468 8.703187 1.918481 0.768101 10.432053 5.556497 0.789189 7.868983 4.179654 0.688762 8.133292 8.635342 0.329315 6.128000 6.506605 0.363147 6.665027 9.769199 0.704521 5.030152 7.357957 0.641116 0.000714 -14.172794 -11.476052 61.156250 23.478813 -21.073271 -10.228160 -1.840385 2.571463 3.627852 -9.788477 25.692281 7.260734 -7.201318 4.287885 -1.373633 -4.849823 3.939706 -6.153027 1.274489 0.712495 -6.153549 1.272018 0.712336 -5.586182 2.870037 0.829052 -5.585860 2.871186 0.827904 -4.357674 4.553955 0.678731 -4.360011 4.546530 0.674602 -3.612178 5.143482 0.842227 -3.611282 5.140448 0.841776 1.075648 4.878102 -12.796975 0.706985 -1.220880 -10.947439 0.766325 -1.138363 -16.388457 0.469205 -1.094435 -16.073165 0.140712 -1.110858 -13.261465 -0.092639 -1.136713 -10.762186 -0.249371 -1.160587 -8.759886 -0.064366 -1.702776 -6.921560 0.506192 -1.707472 -3.035814 1.283729 -2.135847 0.571883 34.087142 -7.905732 -9.158266 3.056520 0.104406 0.699943 43.855846 -15.521786 -0.058071 0.000001 -0.000001 0.000001 0.000005 -0.000010 -0.000004 0.000239 -0.000823 0.000101 0.000003 -0.000003 0.000000 0.000000 -0.000003 -0.000003 23.738321 -2.917951 -6.110645 9.434537 -0.441805 -2.138290 38.985552 -16.589199 -10.008370 15.626766 -6.934284 -5.013384 15.660225 -7.912071 -3.414727 17.114408 -5.617199 -0.863909 17.421970 -4.691314 1.973759 17.124602 -3.241953 5.300737 
5.834556 -0.000001 27.772259 0.000000 0.000000 -0.000109 -0.000000 -0.000000 -6.126447 -0.001219 0.004894 14.369852 -0.679539 2.487188 15.326485 -1.416286 2.401046 14.702957 -2.052748 2.648505 12.994992 -0.000056 -0.000056 15.434237 -0.000049 -0.000105 13.456203 -3.644718 -7.269831 1.959441 -17.067111 -0.000022 0.000025 0.000010 0.000000 0.000001 0.000021 -0.000000 0.000002 -0.000006 0.000007 -0.000015 0.000123 -0.000077 0.000012 0.000006 0.000005 -0.000001 0.000005 -0.000002 0.000006 0.000001 0.000000 -0.000003 0.000122 0.000076 -0.000017 0.000002 -0.000002 -0.000003 -0.000014 -0.000002 -0.000007 -0.000000 -0.000000 -0.000002 0.000934 21.338447 18.911773 117.515399 -48.368586 52.113623 -2.474180 0.401382 -0.649586 10.029296 -2.657601 -8.660483 18.439829 -4.317819 0.439543 7.927226 -4.676719 0.202519 9.550685 2.112251 0.829864 7.407277 1.625488 0.672206 8.636432 4.588797 0.724227 6.697467 3.551326 0.622522 6.728675 7.135816 0.359279 5.213636 5.534971 0.353190 5.518681 8.072835 0.662371 4.281839 6.258200 0.586326 0.000321 -14.266879 -11.747726 63.339548 22.931600 -24.588546 -6.695046 -1.151460 1.718514 7.381410 -10.066516 25.171375 8.981919 -5.309957 3.687509 -0.303095 -3.685442 3.528210 -4.539593 0.949111 0.511839 -4.540080 0.946358 0.512590 -4.117848 2.123206 0.588913 -4.117901 2.127174 0.583905 -3.208042 3.363753 0.472016 -3.211099 3.360858 0.464162 -2.652088 3.804198 0.591502 -2.656244 3.799343 0.589493 1.089096 4.875641 -12.953959 0.781223 -1.107863 -11.750912 0.851996 -1.032308 -16.686922 0.588576 -0.986674 -16.576254 0.268419 -0.991007 -14.218658 0.016501 -1.006544 -12.058023 -0.175746 -1.023531 -10.289813 -0.039604 -1.684489 -8.667520 0.422944 -1.873212 -5.131898 1.096777 -2.676617 -1.545597 32.161086 -8.742981 -8.397977 5.141681 0.197030 1.173988 45.632589 -13.727582 -1.520514 0.000213 -0.000711 0.000045 0.000001 -0.000008 -0.000000 0.000397 -0.001308 0.000161 -0.000122 0.000426 -0.000097 -0.000002 -0.000000 -0.000001 24.992572 -3.672366 -5.576702 7.998051 -0.351835 -1.817594 38.724751 -15.230169 -10.846118 16.365284 -7.299021 -5.211557 16.406500 -8.315843 -3.523993 17.937870 -5.892692 -0.864274 18.266241 -4.897649 2.105098 17.952804 -3.359703 5.584368 
